# 3ds Max Wavefront OBJ Exporter v0.97b - (c)2007 guruware
# File Created: 08.05.2013 00:05:09

mtllib 20781_Ditrigonal_Dodecadodecahedron_V1.mtl

#
# object 20781_Ditrigonal_Dodecadodecahedron
#

v  -3.0620 -0.9782 -0.0317
v  -3.8158 0.0188 1.9357
v  -3.1029 1.0006 1.1885
v  -3.1055 2.2150 1.9505
v  -1.8905 2.6267 -0.0238
v  -3.8153 1.9734 3.1532
v  -3.0518 4.2239 3.2019
v  -4.2549 0.6094 3.1411
v  -4.9465 1.6109 5.1884
v  -4.9589 -1.6032 3.1952
v  -0.0180 -3.2161 -0.0205
v  -1.2140 -3.6133 1.9585
v  -1.9254 -2.6311 1.2103
v  -3.0816 -2.2569 1.9709
v  -3.0735 -3.0065 3.1738
v  -1.9130 -3.8474 3.1631
v  -3.0656 -4.2041 5.1961
v  -0.0238 -5.2160 3.2001
v  3.0489 -0.9827 -0.0156
v  0.7277 -0.9504 -0.0615
v  1.1672 0.4051 -0.0619
v  0.0024 1.2408 -0.0604
v  1.8991 2.6336 -0.0043
v  -1.1381 0.3993 -0.0591
v  -0.6845 -0.9602 -0.0598
v  3.0474 -4.2287 5.1792
v  1.8614 -3.8851 3.1798
v  3.0153 -3.0488 3.1762
v  3.0067 -2.2995 1.9541
v  4.9384 -1.6194 3.1998
v  1.8553 -2.6774 1.2190
v  1.1466 -3.6617 1.9825
v  3.8157 0.0402 1.9786
v  4.2629 0.6368 3.1930
v  3.8236 2.0014 3.1958
v  4.9631 1.6084 5.1901
v  3.1139 2.2335 1.9912
v  3.0768 4.2241 3.2107
v  3.1108 1.0143 1.2378
v  3.8083 -1.9922 5.1996
v  3.0958 -2.2283 6.4109
v  3.0998 -1.0083 7.1638
v  1.8958 -2.6051 8.3991
v  3.8100 -0.0365 6.4154
v  3.0634 0.9978 8.3976
v  4.2485 -0.6502 5.1969
v  -0.7056 -4.2350 5.2077
v  -1.1398 -3.6277 6.4215
v  0.0283 -3.2573 7.1656
v  -1.8861 -2.5920 8.4143
v  1.1655 -3.6368 6.4095
v  0.7066 -4.2433 5.1948
v  -4.2510 -0.6269 5.2262
v  -3.8085 -0.0207 6.4376
v  -3.0938 -1.0131 7.1857
v  -3.0550 1.0032 8.4155
v  -3.1014 -2.2149 6.4345
v  -3.8205 -1.9719 5.2188
v  0.0121 3.2261 8.4033
v  -0.7218 1.0023 8.4414
v  0.7032 1.0008 8.4396
v  1.1375 -0.3655 8.4390
v  -0.0156 -1.1895 8.4403
v  -1.1680 -0.3376 8.4418
v  0.0172 5.2169 5.1896
v  1.2101 3.6288 6.4120
v  1.9208 3.8598 5.1986
v  3.0773 3.0126 5.2028
v  3.0702 2.2711 6.4107
v  1.9101 2.6558 7.1590
v  -3.0507 2.2523 6.4414
v  -3.0486 3.0027 5.2300
v  -1.8845 3.8394 5.2377
v  -1.1831 3.5996 6.4457
v  -1.9095 2.6140 7.1906
v  -0.7061 4.2634 3.1920
v  -1.1515 3.6597 1.9805
v  0.0096 3.2797 1.2304
v  1.1537 3.6497 1.9806
v  0.7062 4.2600 3.1976
v  1.0056 1.3891 3.1498
v  1.0041 0.3365 2.4944
v  1.6111 -0.5272 3.1429
v  2.0035 -0.0005 4.1946
v  1.6255 1.1829 4.1968
v  0.6217 1.9138 4.1964
v  -0.6128 1.9117 4.1998
v  -1.6182 1.1788 4.1939
v  -1.0020 1.3873 3.1422
v  -1.0009 0.3339 2.4850
v  -0.6194 -0.8450 2.4877
v  0.6103 -0.8497 2.4905
v  -0.0129 -1.7074 3.1437
v  0.6077 -1.9104 4.1918
v  1.0015 -1.3797 5.2413
v  1.6110 -1.1831 4.1917
v  -1.0024 -0.3174 5.9008
v  0.0020 -1.0472 5.8968
v  -1.0009 -1.3734 5.2487
v  -0.6215 -1.9026 4.1930
v  -1.6243 -1.1715 4.1951
v  -1.6242 -0.5225 3.1380
v  -2.0044 0.0010 4.1913
v  -1.6179 0.5297 5.2508
v  -0.6183 0.8561 5.9002
v  0.0055 1.7079 5.2473
v  0.6184 0.8604 5.8945
v  1.6219 0.5292 5.2430
v  0.0018 1.0670 2.4927
v  1.0002 -0.3220 5.8947
# 110 vertices

vn -0.8475 0.2658 -0.4594
vn -0.8520 0.2701 -0.4486
vn -0.8472 0.2768 -0.4535
vn -0.8471 0.2858 -0.4480
vn -0.8416 0.2858 -0.4583
vn -0.8522 0.2843 -0.4392
vn -0.8473 0.2970 -0.4404
vn -0.8553 0.2743 -0.4395
vn -0.8593 0.2807 -0.4276
vn -0.8582 0.2623 -0.4412
vn -0.5171 -0.7233 -0.4577
vn -0.5225 -0.7249 -0.4490
vn -0.5260 -0.7195 -0.4535
vn -0.5321 -0.7177 -0.4492
vn -0.5323 -0.7111 -0.4593
vn -0.5321 -0.7229 -0.4408
vn -0.5385 -0.7168 -0.4430
vn -0.5268 -0.7266 -0.4410
vn -0.5324 -0.7293 -0.4298
vn -0.5201 -0.7299 -0.4436
vn 0.0197 -0.0067 -0.9998
vn 0.0048 -0.0069 -1.0000
vn 0.0091 0.0043 -0.9999
vn 0.0005 0.0097 -1.0000
vn 0.0140 0.0213 -0.9997
vn -0.0068 0.0026 -1.0000
vn -0.0103 0.0124 -0.9999
vn -0.0042 -0.0061 -1.0000
vn -0.0118 -0.0034 -0.9999
vn -0.0011 -0.0177 -0.9998
vn 0.5268 -0.7287 -0.4377
vn 0.5218 -0.7286 -0.4438
vn 0.5288 -0.7236 -0.4436
vn 0.5295 -0.7183 -0.4512
vn 0.5382 -0.7168 -0.4433
vn 0.5221 -0.7209 -0.4557
vn 0.5292 -0.7106 -0.4637
vn 0.5177 -0.7277 -0.4499
vn 0.5126 -0.7254 -0.4594
vn 0.5137 -0.7344 -0.4437
vn 0.8596 0.2560 -0.4423
vn 0.8524 0.2660 -0.4501
vn 0.8550 0.2700 -0.4428
vn 0.8518 0.2791 -0.4433
vn 0.8568 0.2767 -0.4350
vn 0.8481 0.2802 -0.4498
vn 0.8483 0.2880 -0.4443
vn 0.8479 0.2730 -0.4545
vn 0.8438 0.2805 -0.4575
vn 0.8476 0.2630 -0.4608
vn 0.8481 -0.2925 0.4418
vn 0.8518 -0.2828 0.4409
vn 0.8480 -0.2839 0.4476
vn 0.8479 -0.2765 0.4524
vn 0.8438 -0.2838 0.4555
vn 0.8511 -0.2723 0.4488
vn 0.8478 -0.2666 0.4584
vn 0.8538 -0.2762 0.4413
vn 0.8550 -0.2692 0.4432
vn 0.8572 -0.2803 0.4321
vn -0.0139 -0.8962 0.4434
vn -0.0049 -0.8962 0.4437
vn -0.0074 -0.8934 0.4493
vn -0.0011 -0.8913 0.4534
vn -0.0100 -0.8888 0.4581
vn 0.0042 -0.8933 0.4494
vn 0.0079 -0.8889 0.4580
vn 0.0015 -0.8961 0.4439
vn 0.0086 -0.8959 0.4441
vn -0.0013 -0.8986 0.4387
vn -0.8581 -0.2592 0.4432
vn -0.8550 -0.2710 0.4423
vn -0.8520 -0.2673 0.4501
vn -0.8470 -0.2742 0.4555
vn -0.8479 -0.2641 0.4597
vn -0.8470 -0.2820 0.4507
vn -0.8404 -0.2834 0.4619
vn -0.8520 -0.2801 0.4422
vn -0.8478 -0.2912 0.4432
vn -0.8581 -0.2771 0.4323
vn 0.0012 0.0167 0.9999
vn -0.0023 0.0058 1.0000
vn 0.0060 0.0062 1.0000
vn 0.0088 -0.0026 1.0000
vn 0.0178 0.0052 0.9998
vn 0.0019 -0.0070 1.0000
vn 0.0112 -0.0140 0.9998
vn -0.0045 -0.0018 1.0000
vn -0.0062 -0.0102 0.9999
vn -0.0111 0.0040 0.9999
vn 0.5190 0.7309 0.4431
vn 0.5222 0.7252 0.4487
vn 0.5257 0.7256 0.4440
vn 0.5309 0.7218 0.4441
vn 0.5294 0.7249 0.4407
vn 0.5316 0.7181 0.4491
vn 0.5372 0.7174 0.4436
vn 0.5259 0.7199 0.4531
vn 0.5317 0.7122 0.4582
vn 0.5173 0.7233 0.4574
vn -0.5362 0.7180 0.4438
vn -0.5280 0.7212 0.4485
vn -0.5281 0.7237 0.4443
vn -0.5227 0.7273 0.4448
vn -0.5262 0.7281 0.4392
vn -0.5203 0.7263 0.4491
vn -0.5177 0.7303 0.4456
vn -0.5227 0.7232 0.4515
vn -0.5176 0.7250 0.4544
vn -0.5260 0.7192 0.4539
vn -0.0170 0.8974 -0.4409
vn -0.0020 0.8975 -0.4410
vn -0.0044 0.8939 -0.4482
vn 0.0030 0.8922 -0.4517
vn -0.0040 0.8895 -0.4570
vn 0.0088 0.8941 -0.4478
vn 0.0088 0.8915 -0.4530
vn 0.0074 0.8971 -0.4417
vn 0.0160 0.8961 -0.4435
vn 0.0039 0.9019 -0.4319
vn -0.5607 0.4249 -0.7107
vn -0.2021 0.9292 0.3094
vn 0.9470 0.0963 0.3063
vn 0.5755 -0.4052 -0.7104
vn -0.1975 -0.6854 -0.7009
vn -0.5597 0.4529 -0.6940
vn 0.5916 0.8041 0.0593
vn 0.9484 -0.3128 0.0521
vn 0.2289 0.6601 -0.7154
vn 0.8369 0.4466 0.3165
vn 0.3835 -0.8733 0.3005
vn -0.2066 -0.6667 -0.7161
vn 0.3753 0.1151 0.9197
vn 0.3781 -0.8777 0.2945
vn 0.3751 -0.1214 -0.9190
vn 0.3840 0.8758 -0.2924
vn -0.2086 0.9301 0.3024
vn 0.3742 0.1196 0.9196
vn 0.8208 -0.4880 -0.2970
vn 0.2325 0.3205 -0.9183
vn -0.7149 0.6317 -0.2999
vn 0.0009 0.3917 0.9201
vn 0.9537 0.0881 0.2876
vn 0.2316 0.3188 -0.9191
vn -0.2561 0.3218 -0.9115
vn -0.9495 0.0910 0.3003
vn -0.0028 0.3938 0.9192
vn 0.7182 0.6313 -0.2926
vn -0.3916 0.1131 0.9132
vn 0.2057 0.9373 0.2813
vn -0.2287 0.3390 -0.9126
vn -0.8261 -0.4833 -0.2897
vn 0.5670 0.4246 -0.7059
vn -0.5766 -0.4017 -0.7115
vn -0.9487 0.0922 0.3023
vn 0.1901 0.9312 0.3112
vn 0.5684 0.4403 -0.6950
vn 0.2151 -0.6817 -0.6993
vn -0.9463 -0.3204 0.0428
vn -0.5809 0.8123 0.0522
vn -0.2424 0.6753 -0.6965
vn 0.7184 -0.0283 -0.6950
vn 0.0081 -0.9990 0.0450
vn -0.9585 -0.2825 0.0373
vn -0.0147 -0.9991 0.0388
vn -0.7168 -0.0032 -0.6973
vn 0.2685 0.6666 -0.6954
vn 0.9487 -0.3113 0.0559
vn 0.7131 -0.0135 -0.7010
vn 0.7106 -0.6355 0.3019
vn -0.7362 -0.6104 0.2922
vn -0.7152 -0.0090 -0.6989
vn -0.7175 -0.6191 0.3192
vn -0.0036 -0.3951 -0.9186
vn 0.9486 -0.0902 -0.3034
vn 0.2360 -0.3203 0.9174
vn -0.5664 -0.4221 0.7078
vn -0.2083 -0.9303 -0.3020
vn 0.9490 -0.0878 -0.3028
vn 0.5861 0.4056 0.7014
vn 0.8342 0.4809 0.2699
vn 0.2307 -0.3255 0.9170
vn -0.2095 -0.9331 -0.2923
vn 0.3771 -0.1199 -0.9184
vn 0.5720 -0.4351 0.6954
vn 0.1970 0.6915 0.6950
vn -0.9509 0.3036 -0.0596
vn -0.5783 -0.8147 -0.0442
vn 0.5941 0.4058 0.6945
vn -0.5984 0.3935 0.6979
vn -0.5951 -0.8021 -0.0490
vn 0.5998 -0.7992 -0.0406
vn -0.5740 0.4055 0.7114
vn -0.9477 -0.0994 -0.3033
vn 0.2027 -0.9315 -0.3019
vn 0.5682 -0.4275 0.7031
vn 0.7164 -0.6321 0.2952
vn -0.2490 -0.3189 0.9145
vn -0.9555 -0.0880 -0.2815
vn -0.0007 -0.3989 -0.9170
vn -0.2325 -0.3263 0.9162
vn -0.8229 0.4875 0.2919
vn -0.3831 -0.1202 -0.9159
vn 0.2071 -0.9353 -0.2870
vn -0.3799 -0.8757 0.2982
vn -0.8201 0.4858 0.3022
vn -0.2288 0.6684 -0.7077
vn 0.2110 -0.6879 -0.6944
vn -0.3772 -0.8759 0.3010
vn -0.3859 0.1451 0.9110
vn -0.3793 0.8786 -0.2902
vn -0.3833 -0.1346 -0.9138
vn 0.2084 0.6820 0.7010
vn -0.3841 0.8715 -0.3048
vn -0.8251 -0.4766 -0.3034
vn -0.2328 -0.6765 0.6986
vn -0.9484 0.3120 -0.0565
vn -0.2251 -0.6786 0.6992
vn 0.7187 0.0175 0.6951
vn 0.0010 0.9984 -0.0574
vn -0.7065 0.0140 0.7076
vn 0.7171 0.0091 0.6969
vn 0.7050 0.6385 -0.3086
vn -0.7144 0.6312 -0.3021
vn 0.9541 0.2955 -0.0481
vn 0.0003 0.9985 -0.0551
vn -0.7158 0.0234 0.6979
vn 0.2539 -0.6724 0.6953
vn 0.3889 0.8687 -0.3067
vn -0.2063 0.6734 0.7099
vn 0.2261 -0.6651 0.7117
vn 0.8228 -0.4798 -0.3047
vn -0.5920 0.8041 0.0546
vn 0.5905 0.8051 0.0549
vn 0.5967 -0.3992 -0.6961
vn -0.5933 -0.3973 -0.7001
vn -0.1969 0.6885 0.6980
vn -0.5655 -0.4395 0.6979
vn 0.5765 -0.8158 -0.0450
vn 0.9460 0.3211 -0.0456
# 240 vertex normals

vt 0.0050 0.1879 0.5000
vt 0.0810 0.0649 0.4530
vt 0.1280 0.1409 0.4240
vt 0.3090 0.0000 0.3121
vt 0.3090 0.3041 0.3121
vt 0.1570 0.0581 0.4060
vt 0.2509 -0.0940 0.3480
vt 0.4969 0.0000 0.1959
vt 0.3739 0.0470 0.2720
vt 0.2330 -0.1811 0.3591
vt 0.3090 -0.3041 0.3121
vt 0.3090 -0.1520 0.3121
vt 0.0810 -0.0649 0.4530
vt 0.0050 -0.1879 0.5000
vt 0.1280 -0.1409 0.4240
vt 0.1053 0.1043 0.4380
vt 0.3739 -0.0470 0.2720
vt 0.0665 -0.1644 0.4620
vt 0.0430 -0.1264 0.4765
vt 0.0665 0.1644 0.4620
vt 0.4354 0.0235 0.2340
vt 0.2330 0.1811 0.3591
vt 0.2710 -0.2426 0.3356
vt 0.0810 -0.0290 0.4530
vt 0.1732 0.1347 0.3960
vt 0.1307 0.1745 0.4223
vt 0.2900 0.1068 0.3238
vt 0.2945 0.1285 0.3211
vt 0.2492 0.0117 0.3490
vt 0.1570 -0.1520 0.4060
vt 0.1995 -0.1917 0.3798
vt 0.1000 0.0162 0.4413
vt 0.2067 0.0515 0.3753
vt 0.1570 0.0940 0.4060
vt 0.1235 0.0542 0.4268
vt 0.2157 0.0369 0.3697
vt 0.3270 0.0290 0.3010
vt 0.4030 0.0000 0.2540
# 38 texture coords

g 20781_Ditrigonal_Dodecadodecahedron
usemtl 20781_Ditrigonal_Dodecadodecahedron
s 1
f 1/1/1 2/2/2 3/3/3 
f 4/4/4 5/5/5 3/6/3 
f 6/7/6 7/8/7 4/9/4 
f 8/10/8 9/11/9 6/12/6 
f 2/13/2 10/14/10 8/15/8 
f 2/2/2 6/16/6 4/3/4 3/3/3 
f 2/2/2 8/2/8 6/16/6 
s 2
f 11/1/11 12/2/12 13/3/13 
f 14/4/14 1/5/15 13/6/13 
f 15/7/16 10/8/17 14/9/14 
f 16/10/18 17/11/19 15/12/16 
f 12/13/12 18/14/20 16/15/18 
f 12/2/12 15/16/16 14/3/14 13/3/13 
f 12/2/12 16/2/18 15/16/16 
s 4
f 19/1/21 20/2/22 21/3/23 
f 22/4/24 23/5/25 21/6/23 
f 24/7/26 5/8/27 22/9/24 
f 25/10/28 1/11/29 24/12/26 
f 20/13/22 11/14/30 25/15/28 
f 20/2/22 24/16/26 22/3/24 21/3/23 
f 20/2/22 25/2/28 24/16/26 
s 1
f 26/1/31 27/2/32 28/3/33 
f 29/4/34 30/5/35 28/6/33 
f 31/7/36 19/8/37 29/9/34 
f 32/10/38 11/11/39 31/12/36 
f 27/13/32 18/14/40 32/15/38 
f 27/2/32 31/16/36 29/3/34 28/3/33 
f 27/2/32 32/2/38 31/16/36 
s 2
f 30/1/41 33/2/42 34/3/43 
f 35/4/44 36/5/45 34/6/43 
f 37/7/46 38/8/47 35/9/44 
f 39/10/48 23/11/49 37/12/46 
f 33/13/42 19/14/50 39/15/48 
f 33/2/42 37/16/46 35/3/44 34/3/43 
f 33/2/42 39/2/48 37/16/46 
s 4
f 26/1/51 40/2/52 41/3/53 
f 42/4/54 43/5/55 41/6/53 
f 44/7/56 45/8/57 42/9/54 
f 46/10/58 36/11/59 44/12/56 
f 40/13/52 30/14/60 46/15/58 
f 40/2/52 44/16/56 42/3/54 41/3/53 
f 40/2/52 46/2/58 44/16/56 
s 8
f 17/1/61 47/2/62 48/3/63 
f 49/4/64 50/5/65 48/6/63 
f 51/7/66 43/8/67 49/9/64 
f 52/10/68 26/11/69 51/12/66 
f 47/13/62 18/14/70 52/15/68 
f 47/2/62 51/16/66 49/3/64 48/3/63 
f 47/2/62 52/2/68 51/16/66 
s 4
f 9/1/71 53/2/72 54/3/73 
f 55/4/74 56/5/75 54/6/73 
f 57/7/76 50/8/77 55/9/74 
f 58/10/78 17/11/79 57/12/76 
f 53/13/72 10/14/80 58/15/78 
f 53/2/72 57/16/76 55/3/74 54/3/73 
f 53/2/72 58/2/78 57/16/76 
s 1
f 59/1/81 60/2/82 61/3/83 
f 62/4/84 45/5/85 61/6/83 
f 63/7/86 43/8/87 62/9/84 
f 64/10/88 50/11/89 63/12/86 
f 60/13/82 56/14/90 64/15/88 
f 60/2/82 63/16/86 62/3/84 61/3/83 
f 60/2/82 64/2/88 63/16/86 
s 8
f 65/1/91 66/2/92 67/3/93 
f 68/4/94 38/5/95 67/6/93 
f 69/7/96 36/8/97 68/9/94 
f 70/10/98 45/11/99 69/12/96 
f 66/13/92 59/14/100 70/15/98 
f 66/2/92 69/16/96 68/3/94 67/3/93 
f 66/2/92 70/2/98 69/16/96 
s 2
f 9/1/101 71/2/102 72/3/103 
f 73/4/104 7/5/105 72/6/103 
f 74/7/106 65/8/107 73/9/104 
f 75/10/108 59/11/109 74/12/106 
f 71/13/102 56/14/110 75/15/108 
f 71/2/102 74/16/106 73/3/104 72/3/103 
f 71/2/102 75/2/108 74/16/106 
s 16
f 7/1/111 76/2/112 77/3/113 
f 78/4/114 5/5/115 77/6/113 
f 79/7/116 23/8/117 78/9/114 
f 80/10/118 38/11/119 79/12/116 
f 76/13/112 65/14/120 80/15/118 
f 76/2/112 79/16/116 78/3/114 77/3/113 
f 76/2/112 80/2/118 79/16/116 
s 1
f 38/8/121 37/7/121 81/17/121 
s 8
f 37/12/122 23/11/122 81/17/122 
s 32
f 23/8/123 79/7/123 81/17/123 
s 4
f 79/12/124 38/11/124 81/17/124 
s 1
f 23/11/125 39/10/125 82/18/125 
s 8
f 39/15/126 19/14/126 82/18/126 
s 16
f 19/1/127 21/3/127 82/18/127 
s 64
f 21/6/128 23/5/128 82/18/128 
s 8
f 30/5/129 29/4/129 83/19/129 
s 32
f 29/9/130 19/8/130 83/19/130 
s 64
f 19/14/131 33/13/131 83/19/131 
s 16
f 33/2/132 30/1/132 83/19/132 
s 32
f 30/1/133 34/3/133 84/20/133 
s 1
f 34/6/134 36/5/134 84/20/134 
s 16
f 36/11/135 46/10/135 84/20/135 
s 64
f 46/15/136 30/14/136 84/20/136 
s 32
f 36/5/137 35/4/137 85/21/137 
s 64
f 35/9/138 38/8/138 85/21/138 
s 128
f 38/5/139 68/4/139 85/21/139 
s 256
f 68/9/140 36/8/140 85/21/140 
s 32
f 67/6/141 38/5/141 86/22/141 
s 256
f 38/11/142 80/10/142 86/22/142 
s 1
f 80/15/143 65/14/143 86/22/143 
s 4
f 65/1/144 67/3/144 86/22/144 
s 32
f 73/9/145 65/8/145 87/21/145 
s 64
f 65/14/146 76/13/146 87/21/146 
s 4
f 76/2/147 7/1/147 87/21/147 
s 8
f 7/5/148 73/4/148 87/21/148 
s 32
f 7/8/149 6/7/149 88/17/149 
s 8
f 6/12/150 9/11/150 88/17/150 
s 16
f 9/1/151 72/3/151 88/17/151 
s 64
f 72/6/152 7/5/152 88/17/152 
s 128
f 4/9/153 7/8/153 89/21/153 
s 256
f 7/1/154 77/3/154 89/21/154 
s 2
f 77/6/155 5/5/155 89/21/155 
s 8
f 5/5/156 4/4/156 89/21/156 
f 1/1/157 3/3/157 90/20/157 
s 32
f 3/6/158 5/5/158 90/20/158 
s 64
f 5/8/159 24/7/159 90/20/159 
s 16
f 24/12/160 1/11/160 90/20/160 
s 8
f 11/1/161 13/3/161 91/23/161 
s 32
f 13/6/162 1/5/162 91/23/162 
s 64
f 1/11/163 25/10/163 91/23/163 
s 16
f 25/15/164 11/14/164 91/23/164 
s 128
f 20/2/165 19/1/165 92/19/165 
s 256
f 19/8/166 31/7/166 92/19/166 
s 32
f 31/12/167 11/11/167 92/19/167 
s 64
f 11/14/168 20/13/168 92/19/168 
s 4
f 18/14/169 12/13/169 93/23/169 
s 128
f 12/2/170 11/1/170 93/23/170 
s 256
f 11/11/171 32/10/171 93/23/171 
s 16
f 32/15/172 18/14/172 93/23/172 
s 2
f 27/2/173 26/1/173 94/24/173 
s 16
f 26/11/174 52/10/174 94/24/174 
s 32
f 52/15/175 18/14/175 94/24/175 
s 64
f 18/14/176 27/13/176 94/24/176 
s 32
f 26/1/177 41/3/177 95/25/177 
s 2
f 41/6/178 43/5/178 95/25/178 
s 16
f 43/8/179 51/7/179 95/25/179 
s 64
f 51/12/180 26/11/180 95/25/180 
s 128
f 26/1/181 28/3/181 96/26/181 
s 256
f 28/6/182 30/5/182 96/26/182 
s 512
f 30/14/183 40/13/183 96/26/183 
s 1024
f 40/2/184 26/1/184 96/26/184 
s 8
f 56/5/185 55/4/185 97/27/185 
s 2
f 55/9/186 50/8/186 97/27/186 
s 16
f 50/11/187 64/10/187 97/27/187 
s 32
f 64/15/188 56/14/188 97/27/188 
f 50/5/189 49/4/189 98/28/189 
s 64
f 49/9/190 43/8/190 98/28/190 
s 128
f 43/8/191 63/7/191 98/28/191 
s 256
f 63/12/192 50/11/192 98/28/192 
s 1
f 17/1/193 48/3/193 99/29/193 
s 64
f 48/6/194 50/5/194 99/29/194 
s 128
f 50/8/195 57/7/195 99/29/195 
s 16
f 57/12/196 17/11/196 99/29/196 
s 32
f 17/11/197 16/10/197 100/30/197 
s 128
f 16/15/198 18/14/198 100/30/198 
s 256
f 18/14/199 47/13/199 100/30/199 
s 64
f 47/2/200 17/1/200 100/30/200 
s 8
f 10/8/201 15/7/201 101/31/201 
s 128
f 15/12/202 17/11/202 101/31/202 
s 256
f 17/11/203 58/10/203 101/31/203 
s 16
f 58/15/204 10/14/204 101/31/204 
s 128
f 2/2/205 1/1/205 102/32/205 
s 256
f 1/5/206 14/4/206 102/32/206 
s 32
f 14/9/207 10/8/207 102/32/207 
s 64
f 10/14/208 2/13/208 102/32/208 
s 32
f 9/11/209 8/10/209 103/30/209 
s 128
f 8/15/210 10/14/210 103/30/210 
s 256
f 10/14/211 53/13/211 103/30/211 
s 64
f 53/2/212 9/1/212 103/30/212 
s 128
f 9/1/213 54/3/213 104/33/213 
s 16
f 54/6/214 56/5/214 104/33/214 
s 64
f 56/14/215 71/13/215 104/33/215 
s 256
f 71/2/216 9/1/216 104/33/216 
s 4
f 60/2/217 59/1/217 105/34/217 
s 16
f 59/11/218 75/10/218 105/34/218 
s 128
f 75/15/219 56/14/219 105/34/219 
s 256
f 56/14/220 60/13/220 105/34/220 
s 128
f 66/2/221 65/1/221 106/35/221 
s 256
f 65/8/222 74/7/222 106/35/222 
s 32
f 74/12/223 59/11/223 106/35/223 
s 64
f 59/14/224 66/13/224 106/35/224 
s 128
f 59/1/225 61/3/225 107/36/225 
s 2
f 61/6/226 45/5/226 107/36/226 
s 16
f 45/11/227 70/10/227 107/36/227 
s 256
f 70/15/228 59/14/228 107/36/228 
s 32
f 45/8/229 44/7/229 108/37/229 
s 64
f 44/12/230 36/11/230 108/37/230 
s 128
f 36/8/231 69/7/231 108/37/231 
s 256
f 69/12/232 45/11/232 108/37/232 
s 128
f 23/5/233 22/4/233 109/38/233 
s 256
f 22/9/234 5/8/234 109/38/234 
s 512
f 5/5/235 78/4/235 109/38/235 
s 1024
f 78/9/236 23/8/236 109/38/236 
s 32
f 43/5/237 42/4/237 110/38/237 
s 64
f 42/9/238 45/8/238 110/38/238 
s 128
f 45/5/239 62/4/239 110/38/239 
s 256
f 62/9/240 43/8/240 110/38/240 
# 12 polygons - 192 triangles

